<svg width="37" height="40" viewBox="0 0 37 40" fill="none" xmlns="http://www.w3.org/2000/svg">
<path d="M0.834344 21.3482L5.01425 17.8543C5.98291 17.0448 7.40667 17.1958 8.19403 18.1913C8.98176 19.1872 8.83486 20.6509 7.8662 21.4604L5.84341 23.1512L20.5299 35.8732C21.4985 36.6827 21.6454 38.1464 20.8577 39.1419C20.4111 39.7071 19.7595 40 19.1028 40C18.6018 40 18.0971 39.8296 17.6783 39.4793L0.834344 24.9542C0.306723 24.513 0 23.8507 0 23.1512C0 22.4516 0.306723 21.7898 0.834344 21.3482Z" fill="white"/>
<path d="M19.3953 7.32817e-05C20.5952 0.00996334 21.5605 1.018 21.5509 2.25197L21.364 37.7835C21.3544 39.0175 20.3736 40.0095 19.1736 39.9996C18.8695 39.9974 18.5809 39.9308 18.3189 39.8129C17.5475 39.4648 17.0106 38.6694 17.0176 37.7478L17.2049 2.21659C17.2145 0.982613 18.195 -0.00981677 19.3953 7.32817e-05Z" fill="white"/>
<path d="M28.9345 24.4414L30.4781 23.1512L24.9799 18.555C24.0112 17.7455 23.8647 16.2818 24.6521 15.2863C25.4394 14.2901 26.8632 14.1394 27.8319 14.9489L35.4868 21.3481C36.0148 21.7898 36.3212 22.4516 36.3212 23.1512C36.3212 23.8507 36.0148 24.513 35.4868 24.9542L31.7864 28.0475C31.3672 28.3979 30.8629 28.5683 30.3619 28.5683C29.7048 28.5683 29.0532 28.2754 28.6066 27.7105C27.8193 26.7146 27.9662 25.2513 28.9345 24.4414Z" fill="#7B4AE2"/>
</svg>
